<?xml version="1.0" encoding="UTF-8"?>
<svg id="_圖層_1" data-name="圖層 1" xmlns="http://www.w3.org/2000/svg" viewBox="0 0 56 56">
  <defs>
    <style>
      .cls-1 {
        fill: #004d78;
      }
    </style>
  </defs>
  <g>
    <g>
      <path class="cls-1" d="M41.07,37.45c-.85-.72-2.05-.79-2.97-.25l-1.72-1.72c1.46-1.67,2.35-3.84,2.35-6.22,0-5.22-4.25-9.47-9.47-9.47s-9.47,4.25-9.47,9.47,4.25,9.47,9.47,9.47c2.39,0,4.56-.89,6.22-2.35l1.72,1.72c-.54.92-.48,2.13.25,2.98l4.23,4.96c.46.54,1.14.87,1.86.9h.1c.68,0,1.34-.27,1.82-.75l.73-.73c.51-.51.78-1.21.75-1.92s-.36-1.39-.9-1.86l-4.96-4.23h0ZM21.06,29.26c0-4.53,3.68-8.21,8.21-8.21s8.21,3.68,8.21,8.21-3.68,8.21-8.21,8.21-8.21-3.68-8.21-8.21ZM45.29,44.56l-.73.73c-.26.26-.61.4-.98.38-.37-.01-.71-.18-.94-.46l-4.23-4.96c-.44-.52-.41-1.29.07-1.77s0,0,0,0c.25-.25.59-.38.92-.38.3,0,.61.1.85.31l4.96,4.23c.28.24.44.57.46.94s-.12.71-.38.98h0Z"/>
      <path class="cls-1" d="M43.64,47.21h-.1c-.8-.04-1.55-.4-2.06-1l-4.23-4.96c-.74-.86-.88-2.09-.37-3.1l-1.41-1.41c-1.75,1.45-3.95,2.25-6.21,2.25-5.37,0-9.73-4.37-9.73-9.73s4.37-9.73,9.73-9.73,9.73,4.37,9.73,9.73c0,2.27-.8,4.46-2.25,6.21l1.41,1.41c1.01-.5,2.23-.36,3.1.37l.15.13h0s4.81,4.11,4.81,4.11c.6.52.97,1.27.99,2.05.03.79-.27,1.56-.83,2.11l-.72.73c-.53.53-1.26.83-2,.83ZM35.5,36.02l2.04,2.03-.1.18c-.5.86-.42,1.93.22,2.68l4.23,4.96c.41.49,1.02.78,1.67.81h.09c.61,0,1.2-.25,1.63-.67l.73-.73c.45-.45.7-1.08.67-1.72-.02-.63-.32-1.24-.81-1.67l-5.11-4.36h0c-.73-.53-1.72-.57-2.51-.1l-.18.1-2.04-2.04.16-.19c1.47-1.68,2.28-3.83,2.28-6.05,0-5.08-4.13-9.21-9.21-9.21s-9.21,4.13-9.21,9.21,4.13,9.21,9.21,9.21c2.22,0,4.37-.81,6.05-2.28l.18-.16ZM43.65,45.93s-.05,0-.08,0c-.44-.02-.85-.22-1.13-.56l-4.23-4.95c-.53-.62-.49-1.55.08-2.13l.21-.21.02.02c.56-.38,1.38-.33,1.89.11l4.96,4.23c.33.28.53.68.55,1.13.02.44-.14.85-.45,1.18h0s-.73.73-.73.73c-.29.29-.69.46-1.1.46ZM38.67,38.66c-.38.38-.41,1.01-.05,1.42l4.23,4.96c.19.23.46.36.75.37.31.01.58-.1.78-.3l.73-.72c.22-.22.32-.5.31-.79-.01-.3-.15-.57-.37-.75l-4.96-4.23c-.39-.34-1.04-.32-1.41.06ZM29.26,37.73c-4.67,0-8.47-3.8-8.47-8.47s3.8-8.47,8.47-8.47,8.47,3.8,8.47,8.47-3.8,8.47-8.47,8.47ZM29.26,21.32c-4.38,0-7.94,3.56-7.94,7.94s3.56,7.94,7.94,7.94,7.94-3.56,7.94-7.94-3.56-7.94-7.94-7.94Z"/>
    </g>
    <g>
      <path class="cls-1" d="M29.26,39.99c-.35,0-.63.28-.63.63v3.79c0,.69-.57,1.26-1.26,1.26h-15.78c-.69,0-1.26-.57-1.26-1.26v-9.97l7.27,6.45c.54.47,1.21.71,1.88.71s1.34-.23,1.88-.71l1.97-1.74c.26-.23.28-.63.06-.89-.23-.27-.63-.29-.89-.06l-1.97,1.74c-.6.52-1.5.52-2.1,0l-7.64-6.78s-.08-.04-.11-.06c.23-.24.56-.4.92-.4h6.67c.35,0,.63-.28.63-.63s-.28-.63-.63-.63h-6.67c-1.4,0-2.53,1.13-2.53,2.53v10.45c0,1.4,1.13,2.53,2.53,2.53h15.78c1.4,0,2.53-1.13,2.53-2.53v-3.79c0-.35-.28-.63-.63-.63Z"/>
      <path class="cls-1" d="M27.37,47.2h-15.78c-1.54,0-2.79-1.25-2.79-2.79v-10.45c0-1.54,1.25-2.79,2.79-2.79h6.67c.49,0,.89.4.89.89s-.4.89-.89.89h-6.67c-.17,0-.34.04-.48.13l7.5,6.65c.5.43,1.25.43,1.75,0l1.97-1.74c.18-.16.41-.24.65-.22.24.02.46.12.62.31.32.36.28.93-.08,1.26l-1.97,1.74c-1.13,1-2.98,1-4.11,0l-6.84-6.06v9.39c0,.55.45,1,1,1h15.78c.55,0,1-.45,1-1v-3.79c0-.49.4-.89.89-.89s.89.4.89.89v3.79c0,1.54-1.25,2.79-2.79,2.79ZM11.59,31.7c-1.25,0-2.26,1.01-2.26,2.26v10.45c0,1.25,1.02,2.26,2.26,2.26h15.78c1.25,0,2.26-1.01,2.26-2.26v-3.79c0-.2-.17-.37-.37-.37s-.37.17-.37.37v3.79c0,.84-.68,1.53-1.53,1.53h-15.78c-.84,0-1.53-.68-1.53-1.53v-10.56l7.71,6.84c.94.83,2.48.83,3.41,0l1.97-1.74c.15-.13.17-.37.03-.52-.07-.08-.15-.12-.25-.13-.1,0-.19.03-.26.09l-1.97,1.74c-.7.61-1.75.61-2.44,0l-7.65-6.78-.31-.16.18-.28c.29-.31.69-.48,1.11-.48h6.67c.2,0,.37-.17.37-.37s-.17-.37-.37-.37h-6.67Z"/>
    </g>
    <g>
      <path class="cls-1" d="M45.04,9.06h-12.63c-1.04,0-1.89.85-1.89,1.89v7.11c0,.35.28.63.63.63s.63-.28.63-.63v-7.11c0-.35.28-.63.63-.63h12.63c.35,0,.63.28.63.63v11.36c0,.35-.28.63-.63.63h-5.95c-.35,0-.63.28-.63.63s.28.63.63.63h5.95c1.04,0,1.89-.85,1.89-1.89v-11.36c0-1.04-.85-1.89-1.89-1.89Z"/>
      <path class="cls-1" d="M45.04,24.47h-5.95c-.49,0-.89-.4-.89-.89s.4-.89.89-.89h5.95c.2,0,.37-.17.37-.37v-11.36c0-.2-.17-.37-.37-.37h-12.62c-.2,0-.37.17-.37.37v7.11c0,.49-.4.89-.89.89s-.89-.4-.89-.89v-7.11c0-1.19.97-2.16,2.16-2.16h12.62c1.19,0,2.16.97,2.16,2.16v11.36c0,1.19-.97,2.16-2.16,2.16ZM39.1,23.21c-.2,0-.37.17-.37.37s.17.37.37.37h5.95c.9,0,1.63-.73,1.63-1.63v-11.36c0-.9-.73-1.63-1.63-1.63h-12.62c-.9,0-1.63.73-1.63,1.63v7.11c0,.2.17.37.37.37s.37-.17.37-.37v-7.11c0-.49.4-.89.89-.89h12.62c.49,0,.89.4.89.89v11.36c0,.49-.4.89-.89.89h-5.95Z"/>
    </g>
    <path class="cls-1" d="M36.21,20.42c.09,0,.2-.03.28-.07l6.31-3.16c.21-.11.35-.33.35-.56s-.13-.45-.35-.56l-6.31-3.16c-.2-.09-.43-.09-.61.03-.18.11-.3.32-.3.54v6.31c0,.22.11.42.3.54.1.06.21.09.33.09h0ZM36.84,14.5l4.27,2.13-4.27,2.13v-4.27Z"/>
    <g>
      <path class="cls-1" d="M16.01,22.95c3.83,0,6.94-3.11,6.94-6.94s-3.11-6.94-6.94-6.94-6.94,3.11-6.94,6.94,3.11,6.94,6.94,6.94ZM16.01,10.32c3.13,0,5.68,2.55,5.68,5.68s-2.55,5.68-5.68,5.68-5.68-2.55-5.68-5.68,2.55-5.68,5.68-5.68Z"/>
      <path class="cls-1" d="M16.01,23.21c-3.97,0-7.21-3.23-7.21-7.21s3.23-7.21,7.21-7.21,7.21,3.23,7.21,7.21-3.23,7.21-7.21,7.21ZM16.01,9.32c-3.68,0-6.68,3-6.68,6.68s3,6.68,6.68,6.68,6.68-3,6.68-6.68-3-6.68-6.68-6.68ZM16.01,21.95c-3.28,0-5.94-2.67-5.94-5.94s2.67-5.94,5.94-5.94,5.94,2.67,5.94,5.94-2.67,5.94-5.94,5.94ZM16.01,10.58c-2.99,0-5.42,2.43-5.42,5.42s2.43,5.42,5.42,5.42,5.42-2.43,5.42-5.42-2.43-5.42-5.42-5.42Z"/>
    </g>
    <path class="cls-1" d="M15.55,19.59c.12.13.28.2.45.2s.33-.07.45-.2l2.68-2.79c.86-.9.86-2.37,0-3.27-.43-.45-1-.69-1.6-.69-.57,0-1.11.22-1.53.62-.86-.82-2.3-.79-3.14.07-.86.9-.86,2.37,0,3.27l2.68,2.79ZM13.78,14.41c.19-.2.44-.3.69-.3s.51.11.69.3c.11.11.18.25.24.41.08.26.33.44.6.44s.52-.18.6-.44c.05-.16.13-.3.24-.41.19-.2.44-.3.69-.3s.51.11.69.3c.4.42.4,1.1,0,1.52l-2.22,2.32-2.22-2.32c-.4-.42-.4-1.1,0-1.52h-.01Z"/>
    <path class="cls-1" d="M33.68,25.47h-2.53c-.35,0-.63.28-.63.63s.28.63.63.63h1.16l-2.45,2.86-1.41-1.41c-.13-.13-.3-.2-.47-.18-.18,0-.34.09-.45.23l-3.16,3.79c-.22.27-.19.67.08.89.12.1.26.15.4.15.18,0,.36-.08.49-.23l2.71-3.26,1.41,1.41c.13.13.29.2.47.18.18,0,.34-.09.45-.22l2.68-3.12v.82c0,.35.28.63.63.63s.63-.28.63-.63v-2.53c0-.35-.28-.63-.63-.63h-.01Z"/>
  </g>
  <g>
    <g>
      <path class="cls-1" d="M41.07,37.45c-.85-.72-2.05-.79-2.97-.25l-1.72-1.72c1.46-1.67,2.35-3.84,2.35-6.22,0-5.22-4.25-9.47-9.47-9.47s-9.47,4.25-9.47,9.47,4.25,9.47,9.47,9.47c2.39,0,4.56-.89,6.22-2.35l1.72,1.72c-.54.92-.48,2.13.25,2.98l4.23,4.96c.46.54,1.14.87,1.86.9h.1c.68,0,1.34-.27,1.82-.75l.73-.73c.51-.51.78-1.21.75-1.92s-.36-1.39-.9-1.86l-4.96-4.23h0ZM21.06,29.26c0-4.53,3.68-8.21,8.21-8.21s8.21,3.68,8.21,8.21-3.68,8.21-8.21,8.21-8.21-3.68-8.21-8.21ZM45.29,44.56l-.73.73c-.26.26-.61.4-.98.38-.37-.01-.71-.18-.94-.46l-4.23-4.96c-.44-.52-.41-1.29.07-1.77s0,0,0,0c.25-.25.59-.38.92-.38.3,0,.61.1.85.31l4.96,4.23c.28.24.44.57.46.94s-.12.71-.38.98h0Z"/>
      <path class="cls-1" d="M43.64,47.21h-.1c-.8-.04-1.55-.4-2.06-1l-4.23-4.96c-.74-.86-.88-2.09-.37-3.1l-1.41-1.41c-1.75,1.45-3.95,2.25-6.21,2.25-5.37,0-9.73-4.37-9.73-9.73s4.37-9.73,9.73-9.73,9.73,4.37,9.73,9.73c0,2.27-.8,4.46-2.25,6.21l1.41,1.41c1.01-.5,2.23-.36,3.1.37l.15.13h0s4.81,4.11,4.81,4.11c.6.52.97,1.27.99,2.05.03.79-.27,1.56-.83,2.11l-.72.73c-.53.53-1.26.83-2,.83ZM35.5,36.02l2.04,2.03-.1.18c-.5.86-.42,1.93.22,2.68l4.23,4.96c.41.49,1.02.78,1.67.81h.09c.61,0,1.2-.25,1.63-.67l.73-.73c.45-.45.7-1.08.67-1.72-.02-.63-.32-1.24-.81-1.67l-5.11-4.36h0c-.73-.53-1.72-.57-2.51-.1l-.18.1-2.04-2.04.16-.19c1.47-1.68,2.28-3.83,2.28-6.05,0-5.08-4.13-9.21-9.21-9.21s-9.21,4.13-9.21,9.21,4.13,9.21,9.21,9.21c2.22,0,4.37-.81,6.05-2.28l.18-.16ZM43.65,45.93s-.05,0-.08,0c-.44-.02-.85-.22-1.13-.56l-4.23-4.95c-.53-.62-.49-1.55.08-2.13l.21-.21.02.02c.56-.38,1.38-.33,1.89.11l4.96,4.23c.33.28.53.68.55,1.13.02.44-.14.85-.45,1.18h0s-.73.73-.73.73c-.29.29-.69.46-1.1.46ZM38.67,38.66c-.38.38-.41,1.01-.05,1.42l4.23,4.96c.19.23.46.36.75.37.31.01.58-.1.78-.3l.73-.72c.22-.22.32-.5.31-.79-.01-.3-.15-.57-.37-.75l-4.96-4.23c-.39-.34-1.04-.32-1.41.06ZM29.26,37.73c-4.67,0-8.47-3.8-8.47-8.47s3.8-8.47,8.47-8.47,8.47,3.8,8.47,8.47-3.8,8.47-8.47,8.47ZM29.26,21.32c-4.38,0-7.94,3.56-7.94,7.94s3.56,7.94,7.94,7.94,7.94-3.56,7.94-7.94-3.56-7.94-7.94-7.94Z"/>
    </g>
    <g>
      <path class="cls-1" d="M29.26,39.99c-.35,0-.63.28-.63.63v3.79c0,.69-.57,1.26-1.26,1.26h-15.78c-.69,0-1.26-.57-1.26-1.26v-9.97l7.27,6.45c.54.47,1.21.71,1.88.71s1.34-.23,1.88-.71l1.97-1.74c.26-.23.28-.63.06-.89-.23-.27-.63-.29-.89-.06l-1.97,1.74c-.6.52-1.5.52-2.1,0l-7.64-6.78s-.08-.04-.11-.06c.23-.24.56-.4.92-.4h6.67c.35,0,.63-.28.63-.63s-.28-.63-.63-.63h-6.67c-1.4,0-2.53,1.13-2.53,2.53v10.45c0,1.4,1.13,2.53,2.53,2.53h15.78c1.4,0,2.53-1.13,2.53-2.53v-3.79c0-.35-.28-.63-.63-.63Z"/>
      <path class="cls-1" d="M27.37,47.2h-15.78c-1.54,0-2.79-1.25-2.79-2.79v-10.45c0-1.54,1.25-2.79,2.79-2.79h6.67c.49,0,.89.4.89.89s-.4.89-.89.89h-6.67c-.17,0-.34.04-.48.13l7.5,6.65c.5.43,1.25.43,1.75,0l1.97-1.74c.18-.16.41-.24.65-.22.24.02.46.12.62.31.32.36.28.93-.08,1.26l-1.97,1.74c-1.13,1-2.98,1-4.11,0l-6.84-6.06v9.39c0,.55.45,1,1,1h15.78c.55,0,1-.45,1-1v-3.79c0-.49.4-.89.89-.89s.89.4.89.89v3.79c0,1.54-1.25,2.79-2.79,2.79ZM11.59,31.7c-1.25,0-2.26,1.01-2.26,2.26v10.45c0,1.25,1.02,2.26,2.26,2.26h15.78c1.25,0,2.26-1.01,2.26-2.26v-3.79c0-.2-.17-.37-.37-.37s-.37.17-.37.37v3.79c0,.84-.68,1.53-1.53,1.53h-15.78c-.84,0-1.53-.68-1.53-1.53v-10.56l7.71,6.84c.94.83,2.48.83,3.41,0l1.97-1.74c.15-.13.17-.37.03-.52-.07-.08-.15-.12-.25-.13-.1,0-.19.03-.26.09l-1.97,1.74c-.7.61-1.75.61-2.44,0l-7.65-6.78-.31-.16.18-.28c.29-.31.69-.48,1.11-.48h6.67c.2,0,.37-.17.37-.37s-.17-.37-.37-.37h-6.67Z"/>
    </g>
    <g>
      <path class="cls-1" d="M45.04,9.06h-12.63c-1.04,0-1.89.85-1.89,1.89v7.11c0,.35.28.63.63.63s.63-.28.63-.63v-7.11c0-.35.28-.63.63-.63h12.63c.35,0,.63.28.63.63v11.36c0,.35-.28.63-.63.63h-5.95c-.35,0-.63.28-.63.63s.28.63.63.63h5.95c1.04,0,1.89-.85,1.89-1.89v-11.36c0-1.04-.85-1.89-1.89-1.89Z"/>
      <path class="cls-1" d="M45.04,24.47h-5.95c-.49,0-.89-.4-.89-.89s.4-.89.89-.89h5.95c.2,0,.37-.17.37-.37v-11.36c0-.2-.17-.37-.37-.37h-12.62c-.2,0-.37.17-.37.37v7.11c0,.49-.4.89-.89.89s-.89-.4-.89-.89v-7.11c0-1.19.97-2.16,2.16-2.16h12.62c1.19,0,2.16.97,2.16,2.16v11.36c0,1.19-.97,2.16-2.16,2.16ZM39.1,23.21c-.2,0-.37.17-.37.37s.17.37.37.37h5.95c.9,0,1.63-.73,1.63-1.63v-11.36c0-.9-.73-1.63-1.63-1.63h-12.62c-.9,0-1.63.73-1.63,1.63v7.11c0,.2.17.37.37.37s.37-.17.37-.37v-7.11c0-.49.4-.89.89-.89h12.62c.49,0,.89.4.89.89v11.36c0,.49-.4.89-.89.89h-5.95Z"/>
    </g>
    <path class="cls-1" d="M36.21,20.42c.09,0,.2-.03.28-.07l6.31-3.16c.21-.11.35-.33.35-.56s-.13-.45-.35-.56l-6.31-3.16c-.2-.09-.43-.09-.61.03-.18.11-.3.32-.3.54v6.31c0,.22.11.42.3.54.1.06.21.09.33.09h0ZM36.84,14.5l4.27,2.13-4.27,2.13v-4.27Z"/>
    <g>
      <path class="cls-1" d="M16.01,22.95c3.83,0,6.94-3.11,6.94-6.94s-3.11-6.94-6.94-6.94-6.94,3.11-6.94,6.94,3.11,6.94,6.94,6.94ZM16.01,10.32c3.13,0,5.68,2.55,5.68,5.68s-2.55,5.68-5.68,5.68-5.68-2.55-5.68-5.68,2.55-5.68,5.68-5.68Z"/>
      <path class="cls-1" d="M16.01,23.21c-3.97,0-7.21-3.23-7.21-7.21s3.23-7.21,7.21-7.21,7.21,3.23,7.21,7.21-3.23,7.21-7.21,7.21ZM16.01,9.32c-3.68,0-6.68,3-6.68,6.68s3,6.68,6.68,6.68,6.68-3,6.68-6.68-3-6.68-6.68-6.68ZM16.01,21.95c-3.28,0-5.94-2.67-5.94-5.94s2.67-5.94,5.94-5.94,5.94,2.67,5.94,5.94-2.67,5.94-5.94,5.94ZM16.01,10.58c-2.99,0-5.42,2.43-5.42,5.42s2.43,5.42,5.42,5.42,5.42-2.43,5.42-5.42-2.43-5.42-5.42-5.42Z"/>
    </g>
    <path class="cls-1" d="M15.55,19.59c.12.13.28.2.45.2s.33-.07.45-.2l2.68-2.79c.86-.9.86-2.37,0-3.27-.43-.45-1-.69-1.6-.69-.57,0-1.11.22-1.53.62-.86-.82-2.3-.79-3.14.07-.86.9-.86,2.37,0,3.27l2.68,2.79ZM13.78,14.41c.19-.2.44-.3.69-.3s.51.11.69.3c.11.11.18.25.24.41.08.26.33.44.6.44s.52-.18.6-.44c.05-.16.13-.3.24-.41.19-.2.44-.3.69-.3s.51.11.69.3c.4.42.4,1.1,0,1.52l-2.22,2.32-2.22-2.32c-.4-.42-.4-1.1,0-1.52h-.01Z"/>
    <path class="cls-1" d="M33.68,25.47h-2.53c-.35,0-.63.28-.63.63s.28.63.63.63h1.16l-2.45,2.86-1.41-1.41c-.13-.13-.3-.2-.47-.18-.18,0-.34.09-.45.23l-3.16,3.79c-.22.27-.19.67.08.89.12.1.26.15.4.15.18,0,.36-.08.49-.23l2.71-3.26,1.41,1.41c.13.13.29.2.47.18.18,0,.34-.09.45-.22l2.68-3.12v.82c0,.35.28.63.63.63s.63-.28.63-.63v-2.53c0-.35-.28-.63-.63-.63h-.01Z"/>
  </g>
</svg>