<?xml version="1.0" encoding="UTF-8"?>
<svg id="_圖層_1" data-name="圖層 1" xmlns="http://www.w3.org/2000/svg" viewBox="0 0 56 56">
  <defs>
    <style>
      .cls-1 {
        fill: #004d78;
      }
    </style>
  </defs>
  <path class="cls-1" d="M40.62,42.1V13.9c0-1.06-.86-1.91-1.91-1.92h-18.37c-2.73,0-4.95,2.22-4.95,4.95v21.92c0,2.85,2.32,5.17,5.17,5.17h18.15c1.06,0,1.91-.86,1.91-1.91ZM38.99,13.9v19.78h-17.62V13.61h7.29v9.45c0,.76.61,1.38,1.37,1.39.37,0,.73-.15.99-.41l1.67-1.69,1.68,1.7c.54.54,1.42.54,1.96,0,.26-.26.41-.61.41-.98v-9.45h1.98c.16,0,.28.13.28.28ZM30.28,13.61h4.82v8.86l-1.43-1.45c-.54-.54-1.43-.54-1.97,0l-1.42,1.44v-8.85ZM19.74,13.67v20.09c-1.02.16-1.98.63-2.73,1.34v-18.17c0-1.6,1.15-2.97,2.73-3.26h0ZM17.01,38.85c0-1.95,1.59-3.54,3.54-3.54h18.44v2.73h-18.44c-.45,0-.81.36-.81.81s.36.81.81.81h18.44v2.44c0,.16-.13.29-.29.29h-18.15c-1.95,0-3.54-1.59-3.54-3.54Z"/>
  <path class="cls-1" d="M38.7,44.13h-18.15c-2.91,0-5.28-2.37-5.28-5.28v-21.92c0-2.79,2.27-5.06,5.06-5.06h18.37c1.12,0,2.03.91,2.03,2.03v28.21c0,1.12-.91,2.03-2.03,2.03ZM20.33,12.09c-2.66,0-4.83,2.17-4.84,4.84v21.92c0,2.79,2.27,5.05,5.06,5.06h18.15c.99,0,1.8-.81,1.8-1.8V13.9c0-.99-.81-1.8-1.8-1.8h-18.37ZM38.7,42.5h-18.15c-2.01,0-3.65-1.64-3.65-3.65h0c0-2.01,1.64-3.65,3.65-3.65h18.55v2.95h-18.55c-.39,0-.7.31-.7.7s.31.7.7.7h18.55v2.55c0,.22-.18.4-.4.4ZM17.12,38.85c0,1.89,1.54,3.43,3.43,3.43h18.15c.1,0,.17-.08.17-.17v-2.33h-18.33c-.51,0-.93-.42-.93-.93s.42-.93.93-.93h18.33v-2.5h-18.33c-1.89,0-3.43,1.54-3.43,3.43h0ZM16.9,35.36v-18.43c0-1.66,1.19-3.07,2.82-3.37h.11l.02.11v20.19l-.09.02c-1.01.16-1.93.61-2.67,1.31l-.19.18ZM19.63,13.81c-1.45.32-2.5,1.62-2.5,3.13v17.92c.71-.61,1.57-1.02,2.5-1.18V13.81ZM39.1,33.79h-17.85V13.5h7.51v9.56c0,.34.13.66.37.9.24.24.55.37.89.38h0c.34,0,.67-.14.9-.38l1.75-1.78,1.76,1.78c.24.24.56.37.9.37s.66-.13.9-.37c.24-.24.37-.56.37-.9v-9.56h2.09c.22,0,.39.18.39.39v19.89ZM21.48,33.57h17.4V13.9c0-.09-.08-.17-.17-.17h-1.86v9.34c0,.4-.16.77-.44,1.06-.28.28-.66.44-1.06.44s-.78-.16-1.06-.44l-1.6-1.62-1.59,1.61c-.28.28-.67.44-1.06.44h0c-.82,0-1.49-.68-1.48-1.5v-9.33h-7.06v19.84ZM35.21,22.74l-1.63-1.64c-.24-.24-.56-.37-.9-.37s-.66.13-.91.38l-1.61,1.63v-9.24h5.05v9.24ZM32.68,20.5c.4,0,.78.16,1.06.44l1.24,1.26v-8.47h-4.6v8.46l1.23-1.25c.29-.28.66-.44,1.06-.44Z"/>
</svg>