<?xml version="1.0" encoding="UTF-8"?>
<svg id="_圖層_1" data-name="圖層 1" xmlns="http://www.w3.org/2000/svg" viewBox="0 0 56 56">
  <defs>
    <style>
      .cls-1 {
        fill: #004d78;
      }
    </style>
  </defs>
  <path class="cls-1" d="M44.67,26.89h-2.05c-.54-7.2-6.31-12.96-13.5-13.5v-2.05c0-.61-.5-1.11-1.11-1.11s-1.11.5-1.11,1.11v2.05c-7.2.54-12.96,6.31-13.5,13.5h-2.05c-.61,0-1.11.5-1.11,1.11s.5,1.11,1.11,1.11h2.05c.54,7.2,6.31,12.96,13.5,13.5v2.05c0,.61.5,1.11,1.11,1.11s1.11-.5,1.11-1.11v-2.05c7.2-.54,12.96-6.31,13.5-13.5h2.05c.61,0,1.11-.5,1.11-1.11s-.5-1.11-1.11-1.11ZM40.39,26.89h-3.35c-.52-4.14-3.78-7.41-7.92-7.92v-3.35c5.97.53,10.74,5.3,11.27,11.27ZM33.42,29.11h1.37c-.48,2.91-2.77,5.2-5.68,5.68v-1.37c0-.61-.5-1.11-1.11-1.11s-1.11.5-1.11,1.11v1.37c-2.91-.48-5.2-2.77-5.68-5.68h1.37c.61,0,1.11-.5,1.11-1.11s-.5-1.11-1.11-1.11h-1.37c.48-2.91,2.77-5.2,5.68-5.68v1.37c0,.61.5,1.11,1.11,1.11s1.11-.5,1.11-1.11v-1.37c2.91.48,5.2,2.77,5.68,5.68h-1.37c-.61,0-1.11.5-1.11,1.11s.5,1.11,1.11,1.11ZM26.89,15.61v3.35c-4.14.52-7.41,3.78-7.92,7.92h-3.35c.53-5.97,5.3-10.74,11.27-11.27ZM15.61,29.11h3.35c.52,4.14,3.78,7.41,7.92,7.92v3.35c-5.97-.53-10.74-5.3-11.27-11.27ZM29.11,40.39v-3.35c4.14-.52,7.41-3.78,7.92-7.92h3.35c-.53,5.97-5.3,10.74-11.27,11.27Z"/>
</svg>