<?xml version="1.0" encoding="UTF-8"?>
<svg id="_圖層_1" data-name="圖層 1" xmlns="http://www.w3.org/2000/svg" viewBox="0 0 56 56">
  <defs>
    <style>
      .cls-1 {
        fill: #004d78;
      }
    </style>
  </defs>
  <path class="cls-1" d="M40.26,12.38H15.74c-1.85,0-3.36,1.51-3.36,3.36v24.52c0,1.85,1.51,3.36,3.36,3.36h24.52c1.85,0,3.36-1.51,3.36-3.36V15.74c0-1.85-1.51-3.36-3.36-3.36ZM15.74,14.21h24.52c.84,0,1.53.68,1.53,1.53v4.03H14.21v-4.03c0-.84.68-1.53,1.53-1.53ZM40.26,41.79H15.74c-.84,0-1.53-.68-1.53-1.53v-18.67h27.57v18.67c0,.84-.68,1.53-1.53,1.53Z"/>
  <path class="cls-1" d="M17.02,17.93h7.32c.51,0,.92-.41.92-.92s-.41-.92-.92-.92h-7.32c-.51,0-.92.41-.92.92s.41.92.92.92Z"/>
  <path class="cls-1" d="M39.9,17.02c0,.51-.41.92-.92.92s-.92-.41-.92-.92.41-.92.92-.92.92.41.92.92Z"/>
  <path class="cls-1" d="M36.24,17.02c0,.51-.41.92-.92.92s-.92-.41-.92-.92.41-.92.92-.92.92.41.92.92Z"/>
  <path class="cls-1" d="M32.58,17.02c0,.51-.41.92-.92.92s-.92-.41-.92-.92.41-.92.92-.92.92.41.92.92Z"/>
  <path class="cls-1" d="M28,23.42c-4.54,0-8.24,3.69-8.24,8.24s3.69,8.24,8.24,8.24,8.24-3.69,8.24-8.24-3.69-8.24-8.24-8.24ZM34.34,30.75h-2.7c-.07-1.62-.35-3.43-.97-4.91,1.94.89,3.36,2.72,3.67,4.91ZM28,38.07c-.48,0-1.63-1.84-1.81-5.49h3.61c-.17,3.61-1.32,5.49-1.81,5.49ZM26.19,30.75c.17-3.61,1.32-5.49,1.81-5.49s1.63,1.84,1.81,5.49h-3.61ZM25.33,25.84c-.62,1.48-.9,3.29-.97,4.91h-2.7c.31-2.18,1.73-4.02,3.67-4.91ZM21.66,32.58h2.7c.07,1.62.35,3.43.97,4.91-1.94-.89-3.36-2.72-3.67-4.91ZM30.67,37.48c.62-1.48.9-3.29.97-4.91h2.7c-.31,2.18-1.73,4.02-3.67,4.91Z"/>
</svg>