<?xml version="1.0" encoding="UTF-8"?>
<svg id="_圖層_1" data-name="圖層 1" xmlns="http://www.w3.org/2000/svg" viewBox="0 0 56 56">
  <defs>
    <style>
      .cls-1 {
        fill: #004d78;
      }
    </style>
  </defs>
  <g>
    <path class="cls-1" d="M43.94,18.84h-7.76v-6.05c0-.1-.04-.2-.09-.3-.11-.19-.31-.31-.53-.32h-18c-.34,0-.62.28-.62.62h0v28.59c0,.34.28.62.62.62h7.76v4.19c0,.34.28.62.62.62h18c.34,0,.62-.28.62-.62h0v-26.73c0-.34-.28-.62-.62-.62h0ZM27.91,18.84l7.02-4.87v4.87h-7.02ZM18.17,40.77V13.42h15.4l-7.99,5.54c-.15.13-.25.31-.27.51v21.31h-7.14ZM43.32,45.58h-16.76v-25.5h16.76v25.5Z"/>
    <path class="cls-1" d="M43.94,47.04h-18c-.46,0-.84-.38-.84-.84v-3.97h-7.54c-.46,0-.84-.38-.84-.84V12.8c0-.46.38-.84.84-.84h18c.31.01.58.18.73.43.07.13.1.26.12.39v5.84h7.54c.46,0,.84.38.84.84v26.73c0,.46-.38.84-.84.84ZM35.55,12.4h-17.99c-.22,0-.39.18-.39.39v28.59c0,.22.18.39.39.39h7.99v4.42c0,.22.18.39.39.39h18c.22,0,.39-.18.39-.39v-26.73c0-.22-.18-.39-.39-.39h-7.99v-6.27c0-.05-.03-.13-.06-.2-.07-.11-.2-.19-.34-.2ZM43.54,45.8h-17.21v-25.95h17.21v25.95ZM26.78,45.35h16.31v-25.05h-16.31v25.05ZM25.54,40.99h-7.59V13.19h16.35l-8.58,5.95c-.09.08-.16.2-.17.34v21.51ZM18.4,40.54h6.7v-21.08c.02-.28.15-.52.35-.68l7.42-5.14h-14.46v26.9ZM35.16,19.07h-7.96l7.96-5.52v5.52ZM28.63,18.62h6.08v-4.21l-6.08,4.21Z"/>
  </g>
  <g>
    <path class="cls-1" d="M38.41,35.61c.48,0,.86-.29.85-.63,0-.33-.39-.6-.85-.61h-6.95c-.48,0-.86.29-.85.63,0,.33.39.6.85.61h6.95Z"/>
    <path class="cls-1" d="M38.41,35.88h-6.95c-.62,0-1.11-.39-1.12-.87,0-.2.08-.4.23-.55.21-.22.54-.35.89-.35h6.96c.62,0,1.11.39,1.12.87,0,.2-.07.4-.23.55-.21.22-.53.35-.89.35h0ZM38.41,34.64h-6.95c-.21,0-.4.07-.51.19-.05.06-.08.11-.08.17,0,.16.25.34.59.35h6.95c.21,0,.4-.07.51-.19.05-.05.08-.11.08-.17,0-.16-.25-.34-.59-.35Z"/>
  </g>
  <g>
    <path class="cls-1" d="M30.61,38.4v3.71c0,.34.28.62.62.62h7.42c.34,0,.62-.28.62-.62h0v-3.71c0-.34-.28-.62-.62-.62h-7.42c-.34,0-.62.28-.62.62h0ZM31.84,39.01h6.18v2.47h-6.18v-2.47Z"/>
    <path class="cls-1" d="M38.65,42.95h-7.42c-.46,0-.84-.38-.84-.84v-3.71c0-.23.09-.44.25-.6s.37-.25.59-.25h7.42c.46,0,.84.38.84.84v3.71c0,.46-.38.84-.84.84ZM31.22,38c-.1,0-.2.04-.28.11s-.12.17-.12.28v3.71c0,.22.18.39.39.39h7.42c.22,0,.39-.18.39-.39v-3.71c0-.22-.18-.39-.39-.39h-7.42ZM38.25,41.71h-6.63v-2.92h6.63v2.92ZM32.07,41.26h5.74v-2.02h-5.74v2.02Z"/>
  </g>
  <path class="cls-1" d="M34.94,24.4h0c2.16,0,3.91,1.75,3.91,3.91v3.25c0,.36-.29.65-.65.65h-3.25c-2.16,0-3.91-1.75-3.91-3.91h0c0-2.16,1.75-3.91,3.91-3.91Z"/>
</svg>